<?xml version="1.0"?>
<svg xmlns="http://www.w3.org/2000/svg" xmlns:xlink="http://www.w3.org/1999/xlink" xmlns:svgjs="http://svgjs.com/svgjs" version="1.1" width="512" height="512" x="0" y="0" viewBox="0 0 493.641 493.641" style="enable-background:new 0 0 512 512" xml:space="preserve" class=""><g><g xmlns="http://www.w3.org/2000/svg"><path d="m381.853 334.192 44.255-37.768c9.103-7.768 10.228-21.497 2.514-30.663-7.714-9.166-21.347-10.3-30.45-2.531l-91.986 78.502-54.444 39.004 48.731 15.982z" fill="#ffe0d1" data-original="#ffe0d1" style=""/><path d="m322.433 351.633 91.986-78.502c4.586-3.914 10.33-5.589 15.879-5.095-.506-.79-1.057-1.538-1.677-2.274-7.714-9.166-21.347-10.3-30.449-2.531l-91.986 78.502-54.444 39.004 20.625 6.765z" fill="#ffd1c2" data-original="#ffd1c2" style=""/><path d="m307.769 341.292 68.39-57.959c7.531-7.784 8.076-20.162.926-28.6-7.615-8.986-21.073-10.097-30.059-2.482l-60.939 51.645-66.445 57.191 34.553 27.972z" fill="#ffe0d1" data-original="#ffe0d1" style=""/><path d="m237.127 371.963 66.446-57.191 60.939-51.645c4.323-3.664 9.675-5.308 14.92-5.027-.661-1.181-1.438-2.296-2.346-3.368-7.615-8.986-21.073-10.097-30.059-2.482l-60.939 51.645-66.445 57.191 34.553 27.972 1.927-1.718z" fill="#ffd1c2" data-original="#ffd1c2" style=""/><g><g id="XMLID_169_"><g><path d="m297.022 341.256 1.71.19h65.38c4.99 0 9.81-1.77 13.61-4.99l69.37-58.79c4.01-3.39 8.9-5.05 13.77-5.05 6.05 0 12.06 2.56 16.28 7.53 7.62 8.99 6.51 22.45-2.48 30.06l-109.5 92.81c-11.31 9.58-25.19 15.63-39.91 17.4l-122.28 14.71-45.91 54.97c-2.575 3.084-6.762 4.3-10.589 3.076l-128.163-40.996c-6.575-2.103-9.019-10.13-4.732-15.54l49.044-61.9 3.89-8.21c19.07-40.21 59.6-65.84 104.1-65.84h103.57c7.38 0 14.05 2.99 18.89 7.82 4.83 4.84 7.82 11.51 7.82 18.89 0 5.08-1.42 9.82-3.87 13.86z" fill="#ffe0d1" data-original="#ffe0d1" style=""/></g><g><path d="m301.771 355.845 1.772.202h67.739c5.17 0 10.164-1.881 14.101-5.302l71.872-62.464c4.155-3.602 9.221-5.366 14.267-5.366 2.918 0 5.836.563 8.553 1.725-.769-1.591-1.737-3.085-2.933-4.496-4.22-4.97-10.23-7.53-16.28-7.53-4.87 0-9.76 1.66-13.77 5.05l-69.37 58.79c-3.8 3.22-8.62 4.99-13.61 4.99h-58.342c-.059 5.275-1.512 10.196-3.999 14.401z" fill="#ffd1c2" data-original="#ffd1c2" style=""/></g><g><g id="XMLID_170_"><g><g fill="#ffd1c2"><path d="m298.732 341.446-1.71-.19c.171-.281.324-.574.484-.862h-159.192c0 15.851 12.85 28.702 28.702 28.702h106.44c.251.004.501.007.752.007 14.45 0 28.103-7.682 35.642-20.07 1.462-2.411 2.665-4.954 3.606-7.587z" fill="#ffd1c2" data-original="#ffd1c2" style=""/><path d="m306.186 341.732-38.196 27.364h5.465c.251.004.501.007.752.007 14.45 0 28.103-7.682 35.642-20.07 2.821-4.652 4.673-9.797 5.515-15.133z" fill="#ffd1c2" data-original="#ffd1c2" style=""/><path d="m315.17 335.019c.465-2.505.722-5.054.722-7.624 0-11.128-4.334-21.6-12.225-29.508-1.643-1.639-3.403-3.115-5.252-4.44l-12.328 10.448-66.445 57.191 9.894 8.009h43.919c.251.004.501.007.752.007.824 0 1.644-.032 2.461-.081l31.101-27.73z" fill="#ffd1c2" data-original="#ffd1c2" style=""/></g><path d="m300.892 327.396c0 5.08-1.42 9.82-3.87 13.86-4.79 7.87-13.53 13.06-23.42 12.84h-133.94l-53.77-16.29c21.48-23.29 52.03-37.12 84.72-37.12h103.57c7.38 0 14.05 2.99 18.89 7.82 4.83 4.84 7.82 11.51 7.82 18.89z" fill="#ffe0d1" data-original="#ffe0d1" style=""/></g></g></g></g><path d="m290.611 0h-168.433c-29.902 0-54.143 24.24-54.143 54.142v104.881c0 29.902 24.24 54.142 54.142 54.142h22.82l13.485 30.291c2.403 5.397 10.063 5.397 12.466 0l13.485-30.291h106.178c29.902 0 54.142-24.24 54.142-54.142v-104.881c0-29.902-24.24-54.142-54.142-54.142z" fill="#199eb8" data-original="#fbe88c" style="" class=""/><circle cx="206.394" cy="106.124" fill="#f9f7f7" r="62.628" data-original="#f9f7f7" style="" class=""/><g><path d="m203.701 135.945c-1.921 0-3.841-.734-5.304-2.197l-14.613-14.613c-2.929-2.929-2.929-7.678 0-10.606 2.929-2.929 7.678-2.929 10.606 0l9.429 9.429 79.456-75.933c2.993-2.862 7.74-2.754 10.604.241 2.862 2.995 2.755 7.742-.24 10.604l-84.756 80.999c-1.452 1.384-3.318 2.076-5.182 2.076z" fill="#f79a52" data-original="#e17983" style="" class=""/></g></g><g><path d="m78.883 396.93 3.89-8.21c19.07-40.21 59.6-65.84 104.1-65.84h103.57c3.666 0 7.168.746 10.346 2.08-.58-6.403-3.426-12.154-7.716-16.454-4.84-4.83-11.51-7.82-18.89-7.82h-103.57c-44.5 0-85.03 25.63-104.1 65.84l-3.89 8.21-49.044 61.9c-4.287 5.41-1.843 13.437 4.732 15.54l13.404 4.287z" fill="#ffd1c2" data-original="#ffd1c2" style=""/></g><path d="m161.42 175.677c-23.188 0-41.985-18.797-41.985-41.985v-115.14c0-6.662 1.558-12.957 4.319-18.552h-1.576c-29.902 0-54.143 24.24-54.143 54.142v104.881c0 29.902 24.24 54.142 54.142 54.142h22.82l13.485 30.291c2.403 5.397 10.063 5.397 12.466 0l13.485-30.291h106.178c24.09 0 44.506-15.746 51.532-37.497z" fill="#199eb8" data-original="#fbe372" style="" class=""/></g></g></svg>
