<?xml version="1.0"?>
<svg xmlns="http://www.w3.org/2000/svg" xmlns:xlink="http://www.w3.org/1999/xlink" xmlns:svgjs="http://svgjs.com/svgjs" version="1.1" width="512" height="512" x="0" y="0" viewBox="0 0 500.342 500.342" style="enable-background:new 0 0 512 512" xml:space="preserve" class=""><g transform="matrix(1,-4.898587196589413e-16,4.898587196589413e-16,1,2.842170943040401e-14,2.5579538487363607e-13)"><g xmlns="http://www.w3.org/2000/svg"><circle cx="250.171" cy="254.663" fill="#199eb8" r="225.887" data-original="#b3e5ee" style="" class=""/><path d="m99.671 250.171c0-107.191 74.662-196.943 174.818-220.089-7.99-.855-16.101-1.306-24.318-1.306-124.754 0-225.887 101.133-225.887 225.887s101.133 225.887 225.887 225.887c17.563 0 34.658-2.005 51.069-5.798-113.316-12.131-201.569-108.044-201.569-224.581z" fill="#199eb8" data-original="#86d7e5" style="" class=""/><circle cx="250.171" cy="253.731" fill="#f9f7f7" r="188.882" data-original="#f9f7f7" style="" class=""/><path d="m178.011 79.136c-68.513 28.348-116.722 95.837-116.722 174.595 0 85.045 56.209 156.954 133.5 180.624-57.562-40.937-95.118-108.169-95.118-184.184 0-68.355 30.367-129.613 78.34-171.035z" fill="#f8f3f2" data-original="#f8f3f2" style="" class=""/><g id="XMLID_206_"><g><path d="m283.541 377.021v.09c11.24 0 20.35 9.11 20.35 20.35 0 5.63-2.28 10.71-5.96 14.4-3.68 3.68-8.77 5.96-14.39 5.96h-8c11.24 0 20.35 9.12 20.35 20.36 0 5.62-2.28 10.71-5.96 14.39-3.68 3.69-8.77 5.97-14.39 5.97h-8c5.62 0 10.71 2.28 14.39 5.96 3.68 3.69 5.96 8.77 5.96 14.4 0 11.24-9.11 20.35-20.35 20.35h-132.51c-15.54 0-30.69-4.94-43.24-14.11l-10.36-7.56-65.31 1.32v-132.22h73.86c4.4 0 8.68-1.47 12.15-4.18l28.34-22.1c4.8-3.74 7.61-9.49 7.61-15.58v-33.27c0-6.89 2.79-13.12 7.31-17.64 4.51-4.51 10.74-7.3 17.63-7.3 13.77 0 24.94 11.16 24.94 24.94v50.13c0 8.08 6.54 14.62 14.62 14.62h177.73c5.62 0 10.71 2.28 14.4 5.97 3.68 3.68 5.96 8.77 5.96 14.39 0 11.24-9.12 20.36-20.36 20.36z" fill="#ffe0d1" data-original="#ffe0d1" style="" class=""/></g></g><g id="XMLID_189_"><g><path d="m232.801 41.801c-11.24 0-20.35-9.11-20.35-20.36 0-5.62 2.28-10.71 5.96-14.39s8.77-5.96 14.39-5.96h132.51c15.54 0 30.69 4.94 43.24 14.11l10.36 7.56h63.42v132.48l-71.97-1.58c-4.4 0-8.68 1.47-12.15 4.18l-28.34 22.1c-4.8 3.74-7.61 9.49-7.61 15.58v33.27c0 13.78-11.17 24.94-24.94 24.94-6.89 0-13.12-2.79-17.63-7.3-4.52-4.52-7.31-10.75-7.31-17.64v-50.13c0-8.08-6.54-14.62-14.62-14.62h-177.73c-11.24 0-20.36-9.12-20.36-20.36 0-5.62 2.28-10.71 5.96-14.39 3.69-3.69 8.78-5.97 14.4-5.97h96.77v-.09c-11.24 0-20.35-9.11-20.35-20.35 0-5.63 2.28-10.71 5.96-14.4 3.68-3.68 8.77-5.96 14.39-5.96h8c-11.24 0-20.35-9.12-20.35-20.36 0-5.62 2.28-10.71 5.96-14.39 3.68-3.69 8.77-5.97 14.39-5.97z" fill="#ffe0d1" data-original="#ffe0d1" style="" class=""/></g></g><g><path d="m339.411 250.678c-4.884-4.842-7.899-11.516-7.899-18.897v-69.702c0-8.656-7.067-15.662-15.798-15.662h-198.054c-6.971 0-13.212-3.194-17.243-8.213-.492 1.753-.746 3.567-.746 5.478 0 11.24 9.12 20.36 20.36 20.36h177.73c8.08 0 14.62 6.54 14.62 14.62v50.13c0 6.89 2.79 13.12 7.31 17.64 4.51 4.51 10.74 7.3 17.63 7.3 1.731 0 3.421-.177 5.053-.513-1.049-.777-2.04-1.625-2.963-2.541z" fill="#ffd1c2" data-original="#ffd1c2" style="" class=""/></g><g><path d="m495.958 166.99h-31.854c-7.361 0-13.329-5.968-13.329-13.329v-130.896c0-7.361 5.968-13.329 13.329-13.329h31.854c2.421 0 4.384 1.963 4.384 4.384v148.785c0 2.422-1.963 4.385-4.384 4.385z" fill="#f79a52" data-original="#e79098" style="" class=""/><path d="m286.524 471.55c-3.729 4.244-9.218 6.901-15.312 6.901h-132.51c-15.54 0-30.69-4.94-43.24-14.11l-5.338-3.896c-3.258-2.377-7.205-3.62-11.237-3.539-5.116.103-9.319-4.015-9.319-9.132v-101.093h-53.447v112.923h23.88v18.814l41.43-.837 10.36 7.56c12.55 9.17 27.7 14.11 43.24 14.11h132.017c10.053 0 18.93-7.102 20.569-17.02.632-3.834.173-7.435-1.093-10.681z" fill="#ffd1c2" data-original="#ffd1c2" style="" class=""/><path d="m4.716 490.905h31.523c7.361 0 13.329-5.968 13.329-13.329v-130.895c0-7.361-5.968-13.329-13.329-13.329h-31.523c-2.604 0-4.716 2.111-4.716 4.716v148.122c0 2.604 2.111 4.715 4.716 4.715z" fill="#f79a52" data-original="#e79098" style="" class=""/><g><path d="m249.671 290.575c-21.728 0-39.403-17.676-39.403-39.404s17.676-39.404 39.403-39.404 39.403 17.676 39.403 39.404-17.676 39.404-39.403 39.404zm0-63.808c-13.456 0-24.403 10.947-24.403 24.404s10.947 24.404 24.403 24.404 24.403-10.947 24.403-24.404-10.947-24.404-24.403-24.404z" fill="#f79a52" data-original="#e79098" style="" class=""/></g><g><path d="m249.671 226.767c-4.143 0-7.5-3.358-7.5-7.5v-12.865c0-4.142 3.357-7.5 7.5-7.5s7.5 3.358 7.5 7.5v12.865c0 4.142-3.358 7.5-7.5 7.5z" fill="#f79a52" data-original="#e79098" style="" class=""/></g><g><path d="m294.439 258.671h-12.865c-4.143 0-7.5-3.358-7.5-7.5s3.357-7.5 7.5-7.5h12.865c4.143 0 7.5 3.358 7.5 7.5s-3.357 7.5-7.5 7.5z" fill="#f79a52" data-original="#e79098" style="" class=""/></g><g><path d="m249.671 303.44c-4.143 0-7.5-3.358-7.5-7.5v-12.865c0-4.142 3.357-7.5 7.5-7.5s7.5 3.358 7.5 7.5v12.865c0 4.142-3.358 7.5-7.5 7.5z" fill="#f79a52" data-original="#e79098" style="" class=""/></g><g><path d="m217.768 258.671h-12.865c-4.143 0-7.5-3.358-7.5-7.5s3.357-7.5 7.5-7.5h12.865c4.143 0 7.5 3.358 7.5 7.5s-3.358 7.5-7.5 7.5z" fill="#f79a52" data-original="#e79098" style="" class=""/></g><g><path d="m249.671 259.671c-4.143 0-7.5-3.358-7.5-7.5v-2.172c0-4.142 3.357-7.5 7.5-7.5s7.5 3.358 7.5 7.5v2.172c0 4.142-3.358 7.5-7.5 7.5z" fill="#f79a52" data-original="#e79098" style="" class=""/></g></g></g></g></svg>
