<?xml version="1.0"?>
<svg xmlns="http://www.w3.org/2000/svg" xmlns:xlink="http://www.w3.org/1999/xlink" xmlns:svgjs="http://svgjs.com/svgjs" version="1.1" width="512" height="512" x="0" y="0" viewBox="0 0 496.611 496.611" style="enable-background:new 0 0 512 512" xml:space="preserve" class=""><g><g xmlns="http://www.w3.org/2000/svg"><g><path d="m115.98 431.11h-79.594v-180.456c0-5.456 4.423-9.879 9.879-9.879h59.836c5.456 0 9.879 4.423 9.879 9.879z" fill="#f79a52c4" data-original="#fbe88c" style="" class=""/></g><g><path d="m230.91 431.11h-79.594v-204.248c0-5.456 4.423-9.879 9.879-9.879h59.836c5.456 0 9.879 4.423 9.879 9.879z" fill="#199eb8cb" data-original="#b3e5ee" style="" class=""/></g><g><path d="m345.84 431.11h-79.594v-233.44c0-5.456 4.423-9.879 9.879-9.879h63.868c3.229 0 5.847 2.618 5.847 5.847z" fill="#f79a52c4" data-original="#fbe88c" style="" class=""/></g><path d="m450.891 153.991c5.456 0 9.879 4.423 9.879 9.879v263.24h-79.594v-253.353c0-10.916 8.849-19.765 19.765-19.765h49.95z" fill="#199eb8cb" data-original="#b3e5ee" style="" class=""/><path d="m61.527 275.801c0-7.229 5.86-13.089 13.089-13.089h41.365v-12.058c0-5.456-4.423-9.879-9.879-9.879h-59.837c-5.456 0-9.879 4.423-9.879 9.879v180.456h25.14v-155.309z" fill="#f79a52" data-original="#fbe372" style="" class=""/><path d="m176.457 248.798c0-5.456 4.423-9.879 9.879-9.879h44.574v-12.058c0-5.456-4.423-9.879-9.879-9.879h-59.836c-5.456 0-9.879 4.423-9.879 9.879v204.249h25.14v-182.312z" fill="#199eb8" data-original="#86d7e5" style="" class=""/><path d="m291.387 219.607c0-5.456 4.423-9.879 9.879-9.879h44.574v-16.09c0-3.229-2.618-5.847-5.846-5.847h-63.868c-5.456 0-9.879 4.423-9.879 9.879v233.44h25.14z" fill="#f79a52" data-original="#fbe372" style="" class=""/><path d="m406.317 188.049c0-6.694 5.427-12.121 12.121-12.121h42.332v-12.058c0-5.456-4.423-9.879-9.879-9.879h-49.949c-10.916 0-19.765 8.849-19.765 19.765v253.354h25.14z" fill="#199eb8" data-original="#86d7e5" style="" class=""/><g><path d="m490.224 461.211h-484.164c-2.971 0-5.38-2.409-5.38-5.38v-20.551c0-13.349 10.821-24.17 24.17-24.17h446.584c13.349 0 24.17 10.821 24.17 24.17v20.552c-.001 2.97-2.409 5.379-5.38 5.379z" fill="#a59ca6" data-original="#a59ca6" style="" class=""/><path d="m489.431 35.688-50.793 17.092c-4.169 1.403-5.039 6.915-1.504 9.533l14.079 10.43c-95.988 135.216-251.639 215.744-417.733 215.744h-18.48c-8.284 0-15 6.716-15 15s6.716 15 15 15h18.48c175.618 0 340.209-85.044 441.846-227.881l11.047 8.184c3.535 2.618 8.554.18 8.682-4.216l1.553-53.569c.11-3.787-3.586-6.525-7.177-5.317z" fill="#eb6ec1" data-original="#e79098" style="" class=""/></g></g></g></svg>
