<?xml version="1.0"?>
<svg xmlns="http://www.w3.org/2000/svg" xmlns:xlink="http://www.w3.org/1999/xlink" xmlns:svgjs="http://svgjs.com/svgjs" version="1.1" width="512" height="512" x="0" y="0" viewBox="0 0 497.302 497.302" style="enable-background:new 0 0 512 512" xml:space="preserve" class=""><g><g xmlns="http://www.w3.org/2000/svg"><g><path d="m253.882 307.559-19.975-13.272-44.222-16.081-85.573 67.769 27.458 49.133c.366.212.729.43 1.097.638l22.803 13.272 108.596-77.147z" fill="#ffe0d1" data-original="#ffe0d1" style="" class=""/><g><path d="m154.07 380.811c-14.067-8.144-26.508-18.821-36.703-31.492l-4.27-5.32-4.012-1.963-4.973 3.939 27.458 49.133c.366.212.729.43 1.097.638l22.803 13.272 21.195-15.057c-4.933-2.871-22.281-12.968-22.595-13.15z" fill="#ffd1c2" data-original="#ffd1c2" style="" class=""/><path d="m495.989 192.869c-.024-3.048-3.332-4.931-5.965-3.396l-123.728 72.143c-2.68 1.51-5.89 1.81-8.81.82l-17.58-5.98c-22.44-7.62-46.84-7.17-68.99 1.28l-.43.17-34.1 44.39-78.71 71.43-8.08 7.15c-6 5.58-7.98 14.11-5.4 21.41.78 2.22 1.98 4.32 3.62 6.2 6.07 6.93 15.84 8.52 23.61 4.58-3.1 3.65-4.67 8.18-4.67 12.72 0 4.77 1.73 9.56 5.24 13.34 7.64 7.63 20.35 7.86 28.25.51l.23-.21c-3.2 3.67-4.81 8.26-4.81 12.87 0 4.78 1.74 9.57 5.25 13.34 7.63 7.64 20.34 7.87 28.24.51l.81-.74c-3.09 3.64-4.65 8.15-4.65 12.68 0 4.78 1.74 9.56 5.25 13.34 7.63 7.63 20.34 7.86 28.24.51l7.92-7.01 54.101-39.906c-.962-1.539-1.527-3.351-1.527-5.3 0-5.534 4.486-10.02 10.02-10.02 3.027 0 5.735 1.348 7.572 3.47l15.037-11.091c-.486-1.309-.765-2.719-.765-4.198 0-6.671 5.408-12.078 12.078-12.078 2.769 0 5.313.942 7.35 2.509l20.684-15.257c13.81-6.04 25.72-15.73 34.44-28.03l5.31-7.48 63.745-31.143c1.372-.67 2.237-2.068 2.225-3.595z" fill="#ffe0d1" data-original="#ffe0d1" style="" class=""/><path d="m495.989 192.869c-.024-3.048-3.332-4.931-5.965-3.396l-123.728 72.143c-2.68 1.51-5.89 1.81-8.81.82l-17.58-5.98c-22.44-7.62-46.84-7.17-68.99 1.28l-.43.17-34.1 44.39-86.79 78.58c-6 5.58-7.98 14.11-5.4 21.41.78 2.22 1.98 4.32 3.62 6.2 6.07 6.93 15.84 8.52 23.61 4.58-3.1 3.65-4.67 8.18-4.67 12.72 0 4.77 1.73 9.56 5.24 13.34 7.64 7.63 20.35 7.86 28.25.51l.23-.21c-3.2 3.67-4.81 8.26-4.81 12.87 0 4.78 1.74 9.57 5.25 13.34 7.63 7.64 20.34 7.87 28.24.51l.81-.74c-3.09 3.64-4.65 8.15-4.65 12.68 0 4.78 1.74 9.56 5.25 13.34 7.63 7.63 20.34 7.86 28.24.51l7.92-7.01 2.225-1.641v-4.584c-7.39 2.999-16.287 1.535-22.17-4.349-3.51-3.78-5.25-8.56-5.25-13.34 0-.288.016-.589.045-.898.341-3.618-2.776-6.641-6.352-5.998-6.394 1.15-13.261-.717-18.092-5.555-3.51-3.77-5.25-8.56-5.25-13.34 0-.947.068-1.893.203-2.83.606-4.187-2.925-7.85-7.118-7.28-6.083.826-13.007.683-16.756-3.06-3.51-3.78-5.24-8.57-5.24-13.34 0-1.028.081-2.056.241-3.073.591-3.746-2.131-7.304-5.913-7.589-1.232-.093-2.725-.612-4.278-1.346-5.485-2.594-6.455-10.017-1.961-14.095l69.303-62.893 34.1-44.39.43-.17c22.15-8.45 46.55-8.9 68.99-1.28l17.58 5.98c2.92.99 6.13.69 8.81-.82l123.728-72.143c.675-.394 1.395-.56 2.093-.541z" fill="#ffd1c2" data-original="#ffd1c2" style="" class=""/><path d="m332.886 314.116c0-9.274-3.592-18.021-10.119-24.632l-35.927-36.377c-5.397 1.101-10.72 2.644-15.924 4.629l-.43.17-34.1 44.39-20.514 18.616 32.952 1.446 28.74 20.367c5.957 4.221 12.964 6.452 20.265 6.452h.001c7.805 0 15.486-2.651 21.641-7.474 8.525-6.696 13.415-16.751 13.415-27.587z" fill="#ffd1c2" data-original="#ffd1c2" style="" class=""/><path d="m312.096 300.026-41.61-42.12c-21.98-22.25-53.37-32.48-84.24-27.43l-49.72 8.12-132.911-62.387c-1.54-.723-3.309.401-3.309 2.102v134.365c0 .887.505 1.696 1.302 2.086l88.988 43.533 4.27 5.32c10.195 12.67 22.636 23.348 36.703 31.492l5.864-30.918 73.574-58.439 42.875 1.808 32.354 22.928c7.24 5.13 16.99 4.89 23.97-.58 5.08-3.99 7.68-9.87 7.68-15.79 0-5.07-1.91-10.16-5.79-14.09z" fill="#ffe0d1" data-original="#ffe0d1" style="" class=""/><path d="m117.367 349.319c-2.812-3.504-6.362-6.344-10.398-8.318l-77.977-38.146c-3.785-1.852-6.185-5.698-6.185-9.911v-107.726l-19.192-9.008c-1.54-.723-3.309.401-3.309 2.102v134.365c0 .887.505 1.696 1.302 2.086l88.988 43.533 4.27 5.32c10.195 12.67 22.636 23.348 36.703 31.492l5.008-26.408c-7.039-5.767-13.48-12.259-19.21-19.381z" fill="#ffd1c2" data-original="#ffd1c2" style="" class=""/></g><path d="m272.295 195.333-20.759 7.613c-2.15.789-4.511.789-6.661 0l-20.759-7.613c-42.884-15.726-71.393-56.547-71.393-102.223v-65.187c0-5.364 3.801-9.976 9.066-11.002l86.886-16.921 85.967 16.907c5.256 1.034 9.046 5.641 9.046 10.998v65.205c0 45.677-28.509 86.497-71.393 102.223z" fill="#199eb8cb" data-original="#b3e5ee" style="" class=""/><path d="m263.524 194.033c-51.331-17.028-85.455-61.227-85.455-110.683v-69.6l-16.28 3.17c-5.265 1.025-9.066 5.638-9.066 11.002v65.188c0 45.676 28.509 86.497 71.393 102.223l20.759 7.613c2.15.789 4.511.789 6.661 0l18.456-6.768z" fill="#199eb8" data-original="#86d7e5" style="" class=""/><path d="m234.445 167.168c-30.937-11.345-51.722-41.106-51.722-74.058v-44.257c0-3.163 2.241-5.882 5.345-6.487l60.578-11.797 59.708 11.743c3.099.609 5.333 3.326 5.333 6.484v44.314c0 33.091-20.654 62.664-51.722 74.057l-13.761 5.046z" fill="#f9f7f7" data-original="#f9f7f7" style="" class=""/><g><path d="m235.927 131.355c-1.903 0-3.742-.724-5.137-2.036l-12.106-11.384c-3.018-2.838-3.164-7.584-.326-10.602s7.584-3.164 10.602-.326l6.269 5.895 34.12-41.457c2.632-3.198 7.359-3.657 10.557-1.025s3.657 7.359 1.025 10.557l-39.211 47.644c-1.319 1.602-3.242 2.586-5.313 2.719-.161.01-.321.015-.48.015z" fill="#f79a52" data-original="#e17983" style="" class=""/></g></g><path d="m391.276 393.056c4.827-2.111 9.416-4.678 13.724-7.637-1.373-4.006-3.514-7.82-6.458-11.208l-13.107-15.084c-6.441-7.412-15.769-11.662-25.593-11.662-8.165 0-16.057 2.951-22.227 8.312l-1.078.937c-5.275 4.584-8.786 10.453-10.477 16.742-6.649.827-12.941 3.607-18.048 8.045l-1.081.939c-5.16 4.485-8.766 10.285-10.496 16.745-6.641.83-12.926 3.609-18.025 8.04l-1.084.941c-5.275 4.584-8.786 10.453-10.476 16.742-6.649.827-12.941 3.607-18.051 8.048l-1.078.937c-6.834 5.938-10.946 14.183-11.58 23.214s2.289 17.77 8.228 24.603l11.067 12.736c1.191-.708 2.325-1.538 3.37-2.511l7.92-7.01 54.101-39.906c-.962-1.539-1.527-3.351-1.527-5.3 0-5.534 4.486-10.02 10.02-10.02 3.027 0 5.735 1.348 7.572 3.47l15.037-11.091c-.486-1.309-.765-2.719-.765-4.198 0-6.671 5.408-12.078 12.078-12.078 2.769 0 5.313.942 7.35 2.509z" fill="#ffd1c2" data-original="#ffd1c2" style="" class=""/><path d="m357.614 409.777-13.107-15.084c-6.845-7.877-6.008-19.811 1.869-26.656l1.08-.939c7.877-6.845 19.811-6.008 26.656 1.869l13.107 15.084c6.845 7.877 6.008 19.811-1.869 26.656l-1.08.939c-7.877 6.844-19.811 6.008-26.656-1.869z" fill="#ffe0d1" data-original="#ffe0d1" style="" class=""/><path d="m365.789 403.626-13.107-15.084c-6.206-7.142-6.065-17.631-.119-24.626-1.809.758-3.546 1.825-5.108 3.182l-1.08.939c-7.877 6.845-8.714 18.779-1.869 26.656l13.107 15.084c6.845 7.877 18.779 8.714 26.656 1.869l1.08-.939c.735-.639 1.388-1.297 2-2.017-7.316 3.066-16.072 1.252-21.56-5.064z" fill="#ffd1c2" data-original="#ffd1c2" style="" class=""/><path d="m328.008 435.503-13.107-15.084c-6.845-7.877-6.008-19.811 1.869-26.656l1.08-.939c7.877-6.845 19.811-6.008 26.656 1.869l13.107 15.084c6.845 7.877 6.008 19.811-1.869 26.656l-1.08.939c-7.876 6.845-19.811 6.008-26.656-1.869z" fill="#ffe0d1" data-original="#ffe0d1" style="" class=""/><path d="m336.433 428.182-13.107-15.084c-5.74-6.605-6.073-16.087-1.389-23.005-1.445.707-2.816 1.626-4.088 2.731l-1.08.939c-7.877 6.845-8.714 18.779-1.869 26.656l13.107 15.084c6.845 7.877 18.779 8.714 26.656 1.869l1.08-.939c1.272-1.105 2.349-2.327 3.251-3.659-7.501 3.673-16.821 2.013-22.561-4.592z" fill="#ffd1c2" data-original="#ffd1c2" style="" class=""/><path d="m298.403 461.23-13.107-15.084c-6.845-7.877-6.008-19.811 1.869-26.656l1.08-.939c7.877-6.845 19.811-6.008 26.656 1.869l13.107 15.084c6.845 7.877 6.008 19.811-1.869 26.656l-1.08.939c-7.876 6.844-19.811 6.008-26.656-1.869z" fill="#ffe0d1" data-original="#ffe0d1" style="" class=""/><path d="m306.427 454.257-13.107-15.084c-5.802-6.677-6.096-16.275-1.25-23.212-1.356.688-2.626 1.547-3.826 2.59l-1.08.939c-7.877 6.845-8.714 18.779-1.869 26.656l13.107 15.084c6.845 7.877 18.779 8.714 26.656 1.869l1.08-.939c1.2-1.043 2.23-2.195 3.101-3.441-7.543 3.83-17.009 2.215-22.812-4.462z" fill="#ffd1c2" data-original="#ffd1c2" style="" class=""/><path d="m268.798 486.956-13.107-15.084c-6.845-7.877-6.008-19.811 1.869-26.656l1.08-.939c7.877-6.845 19.811-6.008 26.656 1.869l13.107 15.084c6.845 7.877 6.008 19.811-1.869 26.656l-1.08.939c-7.877 6.845-19.811 6.008-26.656-1.869z" fill="#ffe0d1" data-original="#ffe0d1" style="" class=""/><path d="m283.372 485.898-20.06-23.085c-4.888-5.625-5.838-13.312-3.125-19.745-.53.373-1.047.775-1.547 1.209l-1.08.939c-7.877 6.845-8.714 18.779-1.869 26.656l13.107 15.084c5.805 6.68 15.271 8.296 22.817 4.459-3.084-1.036-5.955-2.884-8.243-5.517z" fill="#ffd1c2" data-original="#ffd1c2" style="" class=""/></g></g></svg>
